<?xml version="1.0" encoding="UTF-8"?>
<svg id="_圖層_1" xmlns="http://www.w3.org/2000/svg" version="1.1" viewBox="0 0 122.34 35.46">
  <!-- Generator: Adobe Illustrator 30.2.1, SVG Export Plug-In . SVG Version: 2.1.1 Build 1)  -->
  <defs>
    <style>
      .st0, .st1, .st2 {
        isolation: isolate;
      }

      .st1 {
        font-family: MicrosoftYaHeiUI-Bold, 'Microsoft YaHei UI';
        font-size: 15px;
        font-weight: 700;
        letter-spacing: .1em;
      }

      .st1, .st2 {
        fill: #736862;
      }

      .st2 {
        font-family: MicrosoftYaHeiUI, 'Microsoft YaHei UI';
        font-size: 6px;
        letter-spacing: .01em;
      }

      .st3 {
        fill: #ea670d;
      }
    </style>
  </defs>
  <path class="st3" d="M18.89,12.17c-.88-.13-1.81-.03-2.63.11-1.18.2-2.38.2-3.56,0-.82-.15-1.61-.23-2.49-.11-4.54.63-8.08,4.9-8.15,9.9-.08,5.67,4.11,10.31,9.31,10.31.38,0,.76-.03,1.14-.08,1.37-.18,2.74-.18,4.1,0,.36.06.76.08,1.14.08,5.19,0,9.39-4.63,9.31-10.31-.07-5-3.61-9.27-8.15-9.9h-.02,0Z"/>
  <path class="st3" d="M18.56,8c1.49-1.31,2.29-3.07,2.43-4.91-1.82-.09-3.7.5-5.16,1.8-1.49,1.31-2.29,3.07-2.43,4.91,1.82.09,3.7-.5,5.16-1.8Z"/>
  <g class="st0">
    <g class="st0">
      <text class="st2" transform="translate(35.81 31.18)"><tspan x="0" y="0">Orange Mind Design</tspan></text>
    </g>
  </g>
  <g class="st0">
    <text class="st1" transform="translate(34.88 23.18)"><tspan x="0" y="0">OMD</tspan></text>
  </g>
</svg>