<?xml version="1.0" encoding="UTF-8"?>
<svg id="_喇뒨쏛_2" data-name="喇뒨쏛 2" xmlns="http://www.w3.org/2000/svg" viewBox="0 0 202.04 57.28">
  <defs>
    <style>
      .cls-1 {
        fill: #e77737;
      }
    </style>
  </defs>
  <g id="_喇뒨쏛_1-2" data-name="喇뒨쏛 1">
    <g>
      <path class="cls-1" d="M103.95,36.2v20.14h-10.39v-19.82c-.05-5.82-3.19-7.98-6.65-7.98-4.4,0-7.2,2.36-7.2,9.71v18.09h-10.3v-19.67c-.12-5.69-3.79-7.9-6.81-7.9s-7.48,2.09-7.11,8.22v19.35h-10.3V19.6l10.3,5.9c1.5-4.56,6.45-6.84,10.39-6.84,5.43,0,9.6,2.59,11.8,7.24,2.67-5.35,8.42-7.24,12.27-7.24,9.2,0,14,6.53,14,17.54Z"/>
      <path class="cls-1" d="M111.81,56.34V19.6h10.3v36.73h-10.3ZM123.74,6.81c0,3.76-3.05,6.81-6.81,6.81s-6.81-3.05-6.81-6.81,3.05-6.81,6.81-6.81,6.81,3.05,6.81,6.81Z"/>
      <path class="cls-1" d="M128.25,37.85c0-11.64,9.43-19.19,20.14-19.19,6.69,0,12.03,3.07,15.5,7.87l-7.78,5.43v12.03l7.78,5.43c-3.46,4.8-8.81,7.86-15.5,7.86-10.7,0-20.14-7.79-20.14-19.43Z"/>
      <path class="cls-1" d="M166.41,37.85c0-11.64,9.43-19.19,20.14-19.19,6.69,0,12.03,3.07,15.5,7.87l-7.78,5.43v12.03l7.78,5.43c-3.46,4.8-8.81,7.86-15.5,7.86-10.7,0-20.14-7.79-20.14-19.43Z"/>
      <circle class="cls-1" cx="19.31" cy="37.97" r="19.31"/>
    </g>
  </g>
</svg>