<?xml version="1.0" encoding="UTF-8"?>
<svg id="_圖層_2" xmlns="http://www.w3.org/2000/svg" version="1.1" viewBox="0 0 283.5 283.5">
  <!-- Generator: Adobe Illustrator 30.3.0, SVG Export Plug-In . SVG Version: 2.1.3 Build 182)  -->
  <defs>
    <style>
      .st0 {
        fill: none;
        stroke: #fff;
        stroke-miterlimit: 10;
      }

      .st1 {
        fill: #e77737;
      }
    </style>
  </defs>
  <g id="_圖層_1-2">
    <rect class="st0" width="283.5" height="283.5"/>
    <g>
      <path class="st1" d="M145.7,151.9v27.2h-14v-26.7c0-7.9-4.3-10.8-9-10.8s-9.7,3.2-9.7,13.1v24.4h-13.9v-26.5c-.2-7.7-5.1-10.7-9.2-10.7s-10.1,2.8-9.6,11.1v26.1h-13.9v-49.6l13.9,8c2-6.1,8.7-9.2,14-9.2s12.9,3.5,15.9,9.8c3.6-7.2,11.4-9.8,16.5-9.8,12.4,0,18.9,8.8,18.9,23.7h0Z"/>
      <path class="st1" d="M156.3,179.1v-49.6h13.9v49.6h-13.9ZM172.4,112.3c0,5.1-4.1,9.2-9.2,9.2s-9.2-4.1-9.2-9.2,4.1-9.2,9.2-9.2,9.2,4.1,9.2,9.2Z"/>
      <path class="st1" d="M178.5,154.2c0-15.7,12.7-25.9,27.2-25.9s16.2,4.1,20.9,10.6l-10.5,7.3v16.2l10.5,7.3c-4.7,6.5-11.9,10.6-20.9,10.6-14.4,0-27.2-10.5-27.2-26.2Z"/>
      <path class="st1" d="M229.9,154.2c0-15.7,12.7-25.9,27.2-25.9s16.2,4.1,20.9,10.6l-10.5,7.3v16.2l10.5,7.3c-4.7,6.5-11.9,10.6-20.9,10.6-14.4,0-27.2-10.5-27.2-26.2h0Z"/>
      <circle class="st1" cx="31.5" cy="154.3" r="26"/>
    </g>
  </g>
</svg>